<svg width="32" height="32" viewBox="0 0 32 32" fill="none"
	xmlns="http://www.w3.org/2000/svg">
	<g clip-path="url(#clip0_1314_444)">
		<path d="M16 2.66666C10.84 2.66666 6.66669 6.83999 6.66669 12C6.66669 14.32 7.33335 16.4933 8.54669 18.4533C9.81335 20.5067 11.48 22.2667 12.76 24.32C13.3867 25.32 13.84 26.2533 14.32 27.3333C14.6667 28.0667 14.9467 29.3333 16 29.3333C17.0534 29.3333 17.3334 28.0667 17.6667 27.3333C18.16 26.2533 18.6 25.32 19.2267 24.32C20.5067 22.28 22.1734 20.52 23.44 18.4533C24.6667 16.4933 25.3334 14.32 25.3334 12C25.3334 6.83999 21.16 2.66666 16 2.66666ZM16 15.6667C14.16 15.6667 12.6667 14.1733 12.6667 12.3333C12.6667 10.4933 14.16 8.99999 16 8.99999C17.84 8.99999 19.3334 10.4933 19.3334 12.3333C19.3334 14.1733 17.84 15.6667 16 15.6667Z" fill="#333333"/>
	</g>
	<defs>
		<clipPath id="clip0_1314_444">
			<rect width="32" height="32" fill="white"/>
		</clipPath>
	</defs>
</svg>
